<svg id="圖層_1" data-name="圖層 1" xmlns="http://www.w3.org/2000/svg" viewBox="0 0 512 92.3"><defs><style>.cls-1{fill:#d0b772;}</style></defs><title>未命名-3</title><path class="cls-1" d="M72.7,40.7v8.5h9.1v70.7H52.1V49.2h8.3V40.7H51v-8H83.6v8ZM60.4,56.2H59.3V89.6H74.4V81.5h-7V56.2H66.2V83.1l-5.8,3Zm-1.1,56.9H74.4V96.2H59.3Zm6.9-72.4v8.5h1.2V40.7Zm8.2,15.5H72.7V74.6h1.7ZM120.8,74H108.3v9.6h10.5v7.6H108.3v21.1h12.4v7.6H96.8l-3.6-14.4-3.9,16.1-7.2-3.8,9.3-38.2h8.2l-3,12,4.3,17.1V74H83.8V66.1h37Zm-3.5-43.1V63.5H88V30.9Zm-8,6.6H95.7V44h13.6ZM95.7,56.9h13.6V50.4H95.7Z" transform="translate(-51 -29.9)"/><path class="cls-1" d="M207.9,35.7v8.1h-58v65.3l-8.2,6.2-4.2-8,3.5-2.5V35.7h32V29.9h8.9v5.8ZM151.8,65.8l10.9-8.1V56H152.6V49.4h10.1V45.1h8.1v4.3h7.5V56h-7.5v1.4l7.6,5.7-2.8,5.3-4.8-3.5V71h-8.1V66.9l-7.3,5.5ZM185,97.9h24.3v7.6H185v14.4H170.8l-3.9-7.3h9.2v-7.1H151.9V97.9h24.2V93.3H156.3V85.7h19.8V80.5l-13.5,2.1-3.7-6.7L196,70.3l3.6,6.8L185,79.2v6.5h19.8v7.6H185Zm11.8-27.7h-8.1V67.4l-5.4,4-3-5.6,8.4-6.4V56h-7.5V49.4h7.5V45.1h8.1v4.3H207V56H196.8v1.1l12.4,9.3L206,72.5l-9.2-6.7Z" transform="translate(-51 -29.9)"/><path class="cls-1" d="M229.6,33.3h66.9v8.9H229.6Zm57.3,49.5-15.1,28.3h24.7v8.7H229.6v-8.7h23.9l-15-28.3h9.9l10.7,19.8-4.6,8.5h7.1l15.1-28.3ZM290.7,46V79H235.6V46Zm-9.1,25V54.2h-37V71Z" transform="translate(-51 -29.9)"/><path class="cls-1" d="M356.1,43.8h30v22h-8.9V51.5H356.1V72.6h-8.8V51.5H326.2V65.8h-8.8v-22h29.9V39.2H320.7V31.3h62v7.9H356.1ZM318.2,94.1V86.2h67v7.9H356.5l-12.9,15.3h21.5l-9.8-11.6h12.6l16.6,19.7-8.6,4.6-3.4-3.8h-51v-8.9h9.8l13-15.3ZM327.1,83V75.2h49.2V83Zm18.1-29.7v6.9H328.3V53.3ZM328.3,69V62.1h16.9V69Zm46.8-15.7v6.9H358.2V53.3ZM358.2,69V62.1h16.9V69Z" transform="translate(-51 -29.9)"/><path class="cls-1" d="M474.7,73v8.8H444.9v38.1h-9.1V81.8H406V73h29.8V40.2H409V31.3h62.7v8.9H444.9V73ZM422.6,43.9l11,21.6-7.9,4.2L412.8,43.9Zm32.6,25.8-8.1-4.3,11-21.5h10.2Z" transform="translate(-51 -29.9)"/><path class="cls-1" d="M554.8,76.5,552.4,72H498.2V63.5h5.2l18.2-32.6H532L513.8,63.5h33.9L537.2,44.6h10.5L563,72.2Zm-52.1,43.4V77.2h52.5v42.8Zm9.2-34.4v26.1H546V85.5Z" transform="translate(-51 -29.9)"/></svg>